<mxfile host="Electron" modified="2023-11-27T11:35:44.201Z" agent="Mozilla/5.0 (X11; Linux x86_64) AppleWebKit/537.36 (KHTML, like Gecko) draw.io/22.1.2 Chrome/114.0.5735.289 Electron/25.9.4 Safari/537.36" etag="EOY_2z0PyfZbK-rNEXPT" version="22.1.2" type="device">
  <diagram name="Page-1" id="FLL_jL_LrKuCeydl5BQr">
    <mxGraphModel dx="880" dy="526" grid="1" gridSize="10" guides="1" tooltips="1" connect="1" arrows="1" fold="1" page="1" pageScale="1" pageWidth="850" pageHeight="1100" math="0" shadow="0">
      <root>
        <mxCell id="0" />
        <mxCell id="1" parent="0" />
        <mxCell id="drsOIyt9euaYGOHom7RQ-1" value="READY" style="ellipse;whiteSpace=wrap;html=1;" vertex="1" parent="1">
          <mxGeometry x="250" y="160" width="120" height="80" as="geometry" />
        </mxCell>
        <mxCell id="drsOIyt9euaYGOHom7RQ-2" value="NEW" style="ellipse;whiteSpace=wrap;html=1;" vertex="1" parent="1">
          <mxGeometry x="50" y="160" width="120" height="80" as="geometry" />
        </mxCell>
        <mxCell id="drsOIyt9euaYGOHom7RQ-11" style="edgeStyle=orthogonalEdgeStyle;rounded=0;orthogonalLoop=1;jettySize=auto;html=1;exitX=1;exitY=1;exitDx=0;exitDy=0;entryX=1;entryY=0;entryDx=0;entryDy=0;curved=1;" edge="1" parent="1" source="drsOIyt9euaYGOHom7RQ-3" target="drsOIyt9euaYGOHom7RQ-4">
          <mxGeometry relative="1" as="geometry" />
        </mxCell>
        <mxCell id="drsOIyt9euaYGOHom7RQ-13" style="edgeStyle=orthogonalEdgeStyle;rounded=0;orthogonalLoop=1;jettySize=auto;html=1;entryX=0;entryY=0.5;entryDx=0;entryDy=0;" edge="1" parent="1" source="drsOIyt9euaYGOHom7RQ-3" target="drsOIyt9euaYGOHom7RQ-5">
          <mxGeometry relative="1" as="geometry" />
        </mxCell>
        <mxCell id="drsOIyt9euaYGOHom7RQ-3" value="RUNNING" style="ellipse;whiteSpace=wrap;html=1;" vertex="1" parent="1">
          <mxGeometry x="430" y="160" width="120" height="80" as="geometry" />
        </mxCell>
        <mxCell id="drsOIyt9euaYGOHom7RQ-12" style="edgeStyle=orthogonalEdgeStyle;rounded=0;orthogonalLoop=1;jettySize=auto;html=1;exitX=0;exitY=0;exitDx=0;exitDy=0;entryX=0;entryY=1;entryDx=0;entryDy=0;curved=1;" edge="1" parent="1" source="drsOIyt9euaYGOHom7RQ-4" target="drsOIyt9euaYGOHom7RQ-1">
          <mxGeometry relative="1" as="geometry" />
        </mxCell>
        <mxCell id="drsOIyt9euaYGOHom7RQ-4" value="WAITING" style="ellipse;whiteSpace=wrap;html=1;" vertex="1" parent="1">
          <mxGeometry x="320" y="350" width="160" height="80" as="geometry" />
        </mxCell>
        <mxCell id="drsOIyt9euaYGOHom7RQ-5" value="TERMINATED" style="ellipse;whiteSpace=wrap;html=1;" vertex="1" parent="1">
          <mxGeometry x="670" y="160" width="120" height="80" as="geometry" />
        </mxCell>
        <mxCell id="drsOIyt9euaYGOHom7RQ-6" value="" style="endArrow=classic;html=1;rounded=0;exitX=1;exitY=0.5;exitDx=0;exitDy=0;entryX=0;entryY=0.5;entryDx=0;entryDy=0;" edge="1" parent="1" source="drsOIyt9euaYGOHom7RQ-2" target="drsOIyt9euaYGOHom7RQ-1">
          <mxGeometry width="50" height="50" relative="1" as="geometry">
            <mxPoint x="180" y="300" as="sourcePoint" />
            <mxPoint x="230" y="250" as="targetPoint" />
          </mxGeometry>
        </mxCell>
        <mxCell id="drsOIyt9euaYGOHom7RQ-8" value="" style="curved=1;endArrow=classic;html=1;rounded=0;exitX=0.5;exitY=0;exitDx=0;exitDy=0;entryX=0.5;entryY=0;entryDx=0;entryDy=0;" edge="1" parent="1" source="drsOIyt9euaYGOHom7RQ-1" target="drsOIyt9euaYGOHom7RQ-3">
          <mxGeometry width="50" height="50" relative="1" as="geometry">
            <mxPoint x="350" y="110" as="sourcePoint" />
            <mxPoint x="400" y="60" as="targetPoint" />
            <Array as="points">
              <mxPoint x="350" y="110" />
              <mxPoint x="450" y="100" />
            </Array>
          </mxGeometry>
        </mxCell>
        <mxCell id="drsOIyt9euaYGOHom7RQ-9" value="" style="curved=1;endArrow=classic;html=1;rounded=0;entryX=0.5;entryY=1;entryDx=0;entryDy=0;exitX=0.5;exitY=1;exitDx=0;exitDy=0;" edge="1" parent="1" source="drsOIyt9euaYGOHom7RQ-3" target="drsOIyt9euaYGOHom7RQ-1">
          <mxGeometry width="50" height="50" relative="1" as="geometry">
            <mxPoint x="420" y="330" as="sourcePoint" />
            <mxPoint x="470" y="280" as="targetPoint" />
            <Array as="points">
              <mxPoint x="480" y="290" />
              <mxPoint x="400" y="280" />
              <mxPoint x="320" y="280" />
            </Array>
          </mxGeometry>
        </mxCell>
      </root>
    </mxGraphModel>
  </diagram>
</mxfile>
